<svg width="512" height="512" viewBox="0 0 512 512" fill="none" xmlns="http://www.w3.org/2000/svg">
<rect width="512" height="512" rx="256" fill="#3E51FF"/>
<path d="M275.159 214.582C260.156 194.004 238.931 183.715 211.119 183.715C185.869 183.715 164.645 192.902 146.714 211.642C128.783 230.383 120 253.166 120 280.358C120 307.182 128.783 330.332 146.714 349.073C164.645 367.813 185.869 377 211.119 377C238.931 377 260.156 366.711 275.159 345.766V372.223H314.681V115H275.159V214.582ZM175.989 322.616C165.011 311.224 159.522 297.261 159.522 280.358C159.522 263.454 165.011 249.491 175.989 238.467C186.967 227.076 200.873 221.564 217.34 221.564C233.808 221.564 247.714 227.076 258.692 238.467C269.67 249.491 275.159 263.454 275.159 280.358C275.159 297.261 269.67 311.224 258.692 322.616C247.714 333.64 233.808 339.151 217.34 339.151C200.873 339.151 186.967 333.64 175.989 322.616Z" fill="white"/>
<path d="M373.554 321.513C357.819 321.513 346.109 334.007 346.109 349.073C346.109 364.139 358.551 376.633 373.554 376.633C388.558 376.633 401 364.139 401 349.073C401 334.007 388.558 321.513 373.554 321.513Z" fill="white"/>
</svg>
