<svg width="160" height="61" viewBox="0 0 160 61" fill="none" xmlns="http://www.w3.org/2000/svg">
<path d="M11.6 0.799988H16L27.28 28H22.72L19.8 20.88H7.83999L4.95999 28H0.399994L11.6 0.799988ZM18.28 17.04L13.84 6.19999L9.35999 17.04H18.28Z" fill="black" fill-opacity="0.84"/>
<path d="M27.6553 0.799988H33.5353L45.5753 21.92V0.799988H49.9753V28H44.0953L32.0953 6.87999V28H27.6553V0.799988Z" fill="black" fill-opacity="0.84"/>
<path d="M52.7069 0.799988H63.1069C65.8269 0.799988 68.2535 1.38665 70.3869 2.55999C72.5202 3.73332 74.1735 5.35999 75.3469 7.43999C76.5469 9.51999 77.1469 11.88 77.1469 14.52C77.1469 17.1333 76.5469 19.4667 75.3469 21.52C74.1735 23.5467 72.5202 25.1333 70.3869 26.28C68.2535 27.4267 65.8269 28 63.1069 28H52.7069V0.799988ZM62.9869 23.96C64.8535 23.96 66.5069 23.56 67.9469 22.76C69.4135 21.96 70.5469 20.84 71.3469 19.4C72.1469 17.96 72.5469 16.3333 72.5469 14.52C72.5469 12.6533 72.1469 10.9867 71.3469 9.51999C70.5469 8.05332 69.4135 6.90665 67.9469 6.07999C66.5069 5.25332 64.8535 4.83999 62.9869 4.83999H57.1469V23.96H62.9869Z" fill="black" fill-opacity="0.84"/>
<path d="M78.5006 0.799988H90.6606C92.3673 0.799988 93.8873 1.15999 95.2206 1.87999C96.5806 2.57332 97.6339 3.54665 98.3806 4.79999C99.1273 6.05332 99.5006 7.47999 99.5006 9.07999C99.5006 10.36 99.2206 11.56 98.6606 12.68C98.1273 13.7733 97.3673 14.7067 96.3806 15.48C95.394 16.2267 94.2739 16.7467 93.0206 17.04L100.341 28H95.3006L88.2606 17.4H82.9406V28H78.5006V0.799988ZM90.5406 13.4C91.4206 13.4 92.194 13.2267 92.8606 12.88C93.5273 12.5067 94.0473 11.9867 94.4206 11.32C94.794 10.6533 94.9806 9.90665 94.9806 9.07999C94.9806 8.25332 94.794 7.51999 94.4206 6.87999C94.0473 6.21332 93.5273 5.69332 92.8606 5.31999C92.194 4.94665 91.4206 4.75999 90.5406 4.75999H82.9406V13.4H90.5406Z" fill="black" fill-opacity="0.84"/>
<path d="M101.091 0.799988H119.641L120.835 4.75999H105.531V11.96H118.251V15.88H105.531V24.04H120.291V28H101.091V0.799988Z" fill="black" fill-opacity="0.84"/>
<path d="M119.641 0.799988H124.161L130.361 21.68L137.201 0.799988H142.041L148.841 21.68L155.041 0.799988H159.561L151.321 28H146.721L139.601 7.03999L132.441 28H127.841L119.641 0.799988Z" fill="black" fill-opacity="0.84"/>
<path d="M2.75999 32.8H13.16C15.88 32.8 18.3067 33.3867 20.44 34.56C22.5733 35.7333 24.2267 37.36 25.4 39.44C26.6 41.52 27.2 43.88 27.2 46.52C27.2 49.1333 26.6 51.4667 25.4 53.52C24.2267 55.5467 22.5733 57.1333 20.44 58.28C18.3067 59.4267 15.88 60 13.16 60H2.75999V32.8ZM13.04 55.96C14.9067 55.96 16.56 55.56 18 54.76C19.4667 53.96 20.6 52.84 21.4 51.4C22.2 49.96 22.6 48.3333 22.6 46.52C22.6 44.6533 22.2 42.9867 21.4 41.52C20.6 40.0533 19.4667 38.9067 18 38.08C16.56 37.2533 14.9067 36.84 13.04 36.84H7.19999V55.96H13.04Z" fill="black" fill-opacity="0.84"/>
<path d="M36.3937 32.8H40.7937L52.0737 60H47.5137L44.5937 52.88H32.6337L29.7537 60H25.1937L36.3937 32.8ZM43.0737 49.04L38.6337 38.2L34.1537 49.04H43.0737Z" fill="black" fill-opacity="0.84"/>
<path d="M52.4491 32.8H58.3291L70.3691 53.92V32.8H74.7691V60H68.8891L56.8891 38.88V60H52.4491V32.8Z" fill="black" fill-opacity="0.84"/>
<path d="M77.5006 32.8H81.9406V60H77.5006V32.8Z" fill="black" fill-opacity="0.84"/>
<path d="M84.6616 32.8H89.1016V56.04H103.942V60H84.6616V32.8Z" fill="black" fill-opacity="0.84"/>
<path d="M116.56 60.36C113.813 60.36 111.373 59.7733 109.24 58.6C107.107 57.4267 105.44 55.7867 104.24 53.68C103.04 51.5467 102.44 49.1067 102.44 46.36C102.44 43.64 103.04 41.2267 104.24 39.12C105.44 37.0133 107.107 35.3733 109.24 34.2C111.373 33.0267 113.813 32.44 116.56 32.44C119.307 32.44 121.747 33.0267 123.88 34.2C126.04 35.3733 127.72 37.0133 128.92 39.12C130.12 41.2267 130.72 43.64 130.72 46.36C130.72 49.1067 130.12 51.5467 128.92 53.68C127.72 55.7867 126.04 57.4267 123.88 58.6C121.747 59.7733 119.307 60.36 116.56 60.36ZM116.56 56.32C118.427 56.32 120.08 55.9067 121.52 55.08C122.987 54.2267 124.12 53.0533 124.92 51.56C125.72 50.04 126.12 48.3067 126.12 46.36C126.12 44.4133 125.72 42.6933 124.92 41.2C124.12 39.7067 122.987 38.5467 121.52 37.72C120.08 36.8933 118.427 36.48 116.56 36.48C114.693 36.48 113.027 36.8933 111.56 37.72C110.12 38.5467 109 39.7067 108.2 41.2C107.4 42.6933 107 44.4133 107 46.36C107 48.3067 107.4 50.04 108.2 51.56C109 53.0533 110.12 54.2267 111.56 55.08C113.027 55.9067 114.693 56.32 116.56 56.32Z" fill="black" fill-opacity="0.84"/>
<path d="M129.733 32.8H134.293L143.173 54.44L152.053 32.8H156.613L145.333 60H140.933L129.733 32.8Z" fill="black" fill-opacity="0.84"/>
</svg>
